<svg xmlns="http://www.w3.org/2000/svg" viewBox="0 0 48 48" width="48px" height="48px">
  <path fill="#000000" d="M32.163,25.307c-0.049-4.669,3.815-6.916,3.988-7.026c-2.172-3.175-5.552-3.611-6.756-3.661c-2.874-0.291-5.61,1.694-7.067,1.694c-1.457,0-3.708-1.652-6.093-1.607c-3.132,0.046-6.019,1.82-7.633,4.622c-3.252,5.641-0.832,13.999,2.337,18.575c1.551,2.242,3.398,4.765,5.827,4.675c2.337-0.094,3.222-1.51,6.048-1.51c2.825,0,3.624,1.51,6.093,1.463c2.515-0.047,4.108-2.287,5.645-4.539c1.78-2.602,2.512-5.123,2.556-5.25C37.059,32.634,32.219,31.047,32.163,25.307z"/>
  <path fill="#000000" d="M27.93,12.615c1.287-1.561,2.156-3.73,1.918-5.888c-1.853,0.075-4.097,1.234-5.425,2.79c-1.192,1.38-2.235,3.585-1.955,5.701C24.519,15.37,26.643,14.177,27.93,12.615z"/>
</svg> 